<svg width="282" height="62" viewBox="0 0 282 62" fill="none" xmlns="http://www.w3.org/2000/svg">
<g filter="url(#filter0_d_6_2)">
<path d="M6.49219 8.5625H10.1445L19.4609 31.7461L28.7578 8.5625H32.4297L20.8672 37H18.0156L6.49219 8.5625ZM5.30078 8.5625H8.52344L9.05078 25.9062V37H5.30078V8.5625ZM30.3789 8.5625H33.6016V37H29.8516V25.9062L30.3789 8.5625ZM43.2891 19.1875V37H39.6758V15.8672H43.1914L43.2891 19.1875ZM49.8906 15.75L49.8711 19.1094C49.5716 19.0443 49.2852 19.0052 49.0117 18.9922C48.7513 18.9661 48.4518 18.9531 48.1133 18.9531C47.2799 18.9531 46.5443 19.0833 45.9062 19.3438C45.2682 19.6042 44.7279 19.9688 44.2852 20.4375C43.8424 20.9062 43.4909 21.4661 43.2305 22.1172C42.9831 22.7552 42.8203 23.4583 42.7422 24.2266L41.7266 24.8125C41.7266 23.5365 41.8503 22.3385 42.0977 21.2188C42.3581 20.099 42.7552 19.1094 43.2891 18.25C43.8229 17.3776 44.5 16.7005 45.3203 16.2188C46.1536 15.724 47.1432 15.4766 48.2891 15.4766C48.5495 15.4766 48.849 15.5091 49.1875 15.5742C49.526 15.6263 49.7604 15.6849 49.8906 15.75ZM81.7656 33.9336V37H66.707V33.9336H81.7656ZM67.4688 8.5625V37H63.6992V8.5625H67.4688ZM79.7734 20.7891V23.8555H66.707V20.7891H79.7734ZM81.5703 8.5625V11.6484H66.707V8.5625H81.5703ZM89.5 20.3789V37H85.8867V15.8672H89.3047L89.5 20.3789ZM88.6406 25.6328L87.1367 25.5742C87.1497 24.1289 87.3646 22.7943 87.7812 21.5703C88.1979 20.3333 88.7839 19.2591 89.5391 18.3477C90.2943 17.4362 91.1927 16.7331 92.2344 16.2383C93.2891 15.7305 94.4544 15.4766 95.7305 15.4766C96.7721 15.4766 97.7096 15.6198 98.543 15.9062C99.3763 16.1797 100.086 16.6224 100.672 17.2344C101.271 17.8464 101.727 18.6406 102.039 19.6172C102.352 20.5807 102.508 21.7591 102.508 23.1523V37H98.875V23.1133C98.875 22.0065 98.7122 21.1211 98.3867 20.457C98.0612 19.7799 97.5859 19.2917 96.9609 18.9922C96.3359 18.6797 95.5677 18.5234 94.6562 18.5234C93.7578 18.5234 92.9375 18.7122 92.1953 19.0898C91.4661 19.4674 90.8346 19.9883 90.3008 20.6523C89.7799 21.3164 89.3698 22.0781 89.0703 22.9375C88.7839 23.7839 88.6406 24.6823 88.6406 25.6328ZM121.688 15.8672H124.969V36.5508C124.969 38.4128 124.591 40.0013 123.836 41.3164C123.081 42.6315 122.026 43.6276 120.672 44.3047C119.331 44.9948 117.781 45.3398 116.023 45.3398C115.294 45.3398 114.435 45.2227 113.445 44.9883C112.469 44.7669 111.505 44.3828 110.555 43.8359C109.617 43.3021 108.829 42.5794 108.191 41.668L110.086 39.5195C110.971 40.5872 111.896 41.3294 112.859 41.7461C113.836 42.1628 114.799 42.3711 115.75 42.3711C116.896 42.3711 117.885 42.1562 118.719 41.7266C119.552 41.2969 120.197 40.6589 120.652 39.8125C121.121 38.9792 121.355 37.9505 121.355 36.7266V20.5156L121.688 15.8672ZM107.137 26.668V26.2578C107.137 24.6432 107.326 23.1784 107.703 21.8633C108.094 20.5352 108.647 19.3958 109.363 18.4453C110.092 17.4948 110.971 16.7656 112 16.2578C113.029 15.737 114.188 15.4766 115.477 15.4766C116.805 15.4766 117.964 15.7109 118.953 16.1797C119.956 16.6354 120.802 17.306 121.492 18.1914C122.195 19.0638 122.749 20.1185 123.152 21.3555C123.556 22.5924 123.836 23.9922 123.992 25.5547V27.3516C123.849 28.901 123.569 30.2943 123.152 31.5312C122.749 32.7682 122.195 33.8229 121.492 34.6953C120.802 35.5677 119.956 36.2383 118.953 36.707C117.951 37.1628 116.779 37.3906 115.438 37.3906C114.174 37.3906 113.029 37.1237 112 36.5898C110.984 36.056 110.112 35.3073 109.383 34.3438C108.654 33.3802 108.094 32.2474 107.703 30.9453C107.326 29.6302 107.137 28.2044 107.137 26.668ZM110.75 26.2578V26.668C110.75 27.7227 110.854 28.7122 111.062 29.6367C111.284 30.5612 111.616 31.375 112.059 32.0781C112.514 32.7812 113.094 33.3346 113.797 33.7383C114.5 34.1289 115.34 34.3242 116.316 34.3242C117.514 34.3242 118.504 34.0703 119.285 33.5625C120.066 33.0547 120.685 32.3841 121.141 31.5508C121.609 30.7174 121.974 29.8125 122.234 28.8359V24.1289C122.091 23.4128 121.87 22.7227 121.57 22.0586C121.284 21.3815 120.906 20.7826 120.438 20.2617C119.982 19.7279 119.415 19.3047 118.738 18.9922C118.061 18.6797 117.267 18.5234 116.355 18.5234C115.366 18.5234 114.513 18.7318 113.797 19.1484C113.094 19.5521 112.514 20.112 112.059 20.8281C111.616 21.5312 111.284 22.3516 111.062 23.2891C110.854 24.2135 110.75 25.2031 110.75 26.2578ZM134.383 15.8672V37H130.75V15.8672H134.383ZM130.477 10.2617C130.477 9.67578 130.652 9.18099 131.004 8.77734C131.368 8.3737 131.902 8.17188 132.605 8.17188C133.296 8.17188 133.823 8.3737 134.188 8.77734C134.565 9.18099 134.754 9.67578 134.754 10.2617C134.754 10.8216 134.565 11.3034 134.188 11.707C133.823 12.0977 133.296 12.293 132.605 12.293C131.902 12.293 131.368 12.0977 131.004 11.707C130.652 11.3034 130.477 10.8216 130.477 10.2617ZM143.797 20.3789V37H140.184V15.8672H143.602L143.797 20.3789ZM142.938 25.6328L141.434 25.5742C141.447 24.1289 141.661 22.7943 142.078 21.5703C142.495 20.3333 143.081 19.2591 143.836 18.3477C144.591 17.4362 145.49 16.7331 146.531 16.2383C147.586 15.7305 148.751 15.4766 150.027 15.4766C151.069 15.4766 152.007 15.6198 152.84 15.9062C153.673 16.1797 154.383 16.6224 154.969 17.2344C155.568 17.8464 156.023 18.6406 156.336 19.6172C156.648 20.5807 156.805 21.7591 156.805 23.1523V37H153.172V23.1133C153.172 22.0065 153.009 21.1211 152.684 20.457C152.358 19.7799 151.883 19.2917 151.258 18.9922C150.633 18.6797 149.865 18.5234 148.953 18.5234C148.055 18.5234 147.234 18.7122 146.492 19.0898C145.763 19.4674 145.132 19.9883 144.598 20.6523C144.077 21.3164 143.667 22.0781 143.367 22.9375C143.081 23.7839 142.938 24.6823 142.938 25.6328ZM171.062 37.3906C169.591 37.3906 168.257 37.1432 167.059 36.6484C165.874 36.1406 164.852 35.431 163.992 34.5195C163.146 33.6081 162.495 32.5273 162.039 31.2773C161.583 30.0273 161.355 28.6602 161.355 27.1758V26.3555C161.355 24.6367 161.609 23.1068 162.117 21.7656C162.625 20.4115 163.315 19.2656 164.188 18.3281C165.06 17.3906 166.049 16.681 167.156 16.1992C168.263 15.7174 169.409 15.4766 170.594 15.4766C172.104 15.4766 173.406 15.737 174.5 16.2578C175.607 16.7786 176.512 17.5078 177.215 18.4453C177.918 19.3698 178.439 20.4635 178.777 21.7266C179.116 22.9766 179.285 24.3438 179.285 25.8281V27.4492H163.504V24.5H175.672V24.2266C175.62 23.2891 175.424 22.3776 175.086 21.4922C174.76 20.6068 174.24 19.8776 173.523 19.3047C172.807 18.7318 171.831 18.4453 170.594 18.4453C169.773 18.4453 169.018 18.6211 168.328 18.9727C167.638 19.3112 167.046 19.819 166.551 20.4961C166.056 21.1732 165.672 22 165.398 22.9766C165.125 23.9531 164.988 25.0794 164.988 26.3555V27.1758C164.988 28.1784 165.125 29.1224 165.398 30.0078C165.685 30.8802 166.095 31.6484 166.629 32.3125C167.176 32.9766 167.833 33.4974 168.602 33.875C169.383 34.2526 170.268 34.4414 171.258 34.4414C172.534 34.4414 173.615 34.181 174.5 33.6602C175.385 33.1393 176.16 32.4427 176.824 31.5703L179.012 33.3086C178.556 33.9987 177.977 34.6562 177.273 35.2812C176.57 35.9062 175.704 36.4141 174.676 36.8047C173.66 37.1953 172.456 37.3906 171.062 37.3906ZM192.273 37.3906C190.802 37.3906 189.467 37.1432 188.27 36.6484C187.085 36.1406 186.062 35.431 185.203 34.5195C184.357 33.6081 183.706 32.5273 183.25 31.2773C182.794 30.0273 182.566 28.6602 182.566 27.1758V26.3555C182.566 24.6367 182.82 23.1068 183.328 21.7656C183.836 20.4115 184.526 19.2656 185.398 18.3281C186.271 17.3906 187.26 16.681 188.367 16.1992C189.474 15.7174 190.62 15.4766 191.805 15.4766C193.315 15.4766 194.617 15.737 195.711 16.2578C196.818 16.7786 197.723 17.5078 198.426 18.4453C199.129 19.3698 199.65 20.4635 199.988 21.7266C200.327 22.9766 200.496 24.3438 200.496 25.8281V27.4492H184.715V24.5H196.883V24.2266C196.831 23.2891 196.635 22.3776 196.297 21.4922C195.971 20.6068 195.451 19.8776 194.734 19.3047C194.018 18.7318 193.042 18.4453 191.805 18.4453C190.984 18.4453 190.229 18.6211 189.539 18.9727C188.849 19.3112 188.257 19.819 187.762 20.4961C187.267 21.1732 186.883 22 186.609 22.9766C186.336 23.9531 186.199 25.0794 186.199 26.3555V27.1758C186.199 28.1784 186.336 29.1224 186.609 30.0078C186.896 30.8802 187.306 31.6484 187.84 32.3125C188.387 32.9766 189.044 33.4974 189.812 33.875C190.594 34.2526 191.479 34.4414 192.469 34.4414C193.745 34.4414 194.826 34.181 195.711 33.6602C196.596 33.1393 197.371 32.4427 198.035 31.5703L200.223 33.3086C199.767 33.9987 199.188 34.6562 198.484 35.2812C197.781 35.9062 196.915 36.4141 195.887 36.8047C194.871 37.1953 193.667 37.3906 192.273 37.3906ZM208.328 19.1875V37H204.715V15.8672H208.23L208.328 19.1875ZM214.93 15.75L214.91 19.1094C214.611 19.0443 214.324 19.0052 214.051 18.9922C213.79 18.9661 213.491 18.9531 213.152 18.9531C212.319 18.9531 211.583 19.0833 210.945 19.3438C210.307 19.6042 209.767 19.9688 209.324 20.4375C208.882 20.9062 208.53 21.4661 208.27 22.1172C208.022 22.7552 207.859 23.4583 207.781 24.2266L206.766 24.8125C206.766 23.5365 206.889 22.3385 207.137 21.2188C207.397 20.099 207.794 19.1094 208.328 18.25C208.862 17.3776 209.539 16.7005 210.359 16.2188C211.193 15.724 212.182 15.4766 213.328 15.4766C213.589 15.4766 213.888 15.5091 214.227 15.5742C214.565 15.6263 214.799 15.6849 214.93 15.75ZM230.574 31.3945C230.574 30.8737 230.457 30.3919 230.223 29.9492C230.001 29.4935 229.539 29.0833 228.836 28.7188C228.146 28.3411 227.104 28.0156 225.711 27.7422C224.539 27.4948 223.478 27.2018 222.527 26.8633C221.59 26.5247 220.789 26.1146 220.125 25.6328C219.474 25.151 218.973 24.5846 218.621 23.9336C218.27 23.2826 218.094 22.5208 218.094 21.6484C218.094 20.8151 218.276 20.0273 218.641 19.2852C219.018 18.543 219.546 17.8854 220.223 17.3125C220.913 16.7396 221.74 16.2904 222.703 15.9648C223.667 15.6393 224.741 15.4766 225.926 15.4766C227.618 15.4766 229.064 15.776 230.262 16.375C231.46 16.974 232.378 17.7747 233.016 18.7773C233.654 19.7669 233.973 20.8672 233.973 22.0781H230.359C230.359 21.4922 230.184 20.9258 229.832 20.3789C229.493 19.819 228.992 19.3568 228.328 18.9922C227.677 18.6276 226.876 18.4453 225.926 18.4453C224.923 18.4453 224.109 18.6016 223.484 18.9141C222.872 19.2135 222.423 19.5977 222.137 20.0664C221.863 20.5352 221.727 21.0299 221.727 21.5508C221.727 21.9414 221.792 22.293 221.922 22.6055C222.065 22.9049 222.312 23.1849 222.664 23.4453C223.016 23.6927 223.51 23.9271 224.148 24.1484C224.786 24.3698 225.6 24.5911 226.59 24.8125C228.322 25.2031 229.747 25.6719 230.867 26.2188C231.987 26.7656 232.82 27.4362 233.367 28.2305C233.914 29.0247 234.188 29.9883 234.188 31.1211C234.188 32.0456 233.992 32.8919 233.602 33.6602C233.224 34.4284 232.671 35.0924 231.941 35.6523C231.225 36.1992 230.366 36.6289 229.363 36.9414C228.374 37.2409 227.26 37.3906 226.023 37.3906C224.161 37.3906 222.586 37.0586 221.297 36.3945C220.008 35.7305 219.031 34.8711 218.367 33.8164C217.703 32.7617 217.371 31.6484 217.371 30.4766H221.004C221.056 31.4661 221.342 32.2539 221.863 32.8398C222.384 33.4128 223.022 33.8229 223.777 34.0703C224.533 34.3047 225.281 34.4219 226.023 34.4219C227.013 34.4219 227.84 34.2917 228.504 34.0312C229.181 33.7708 229.695 33.4128 230.047 32.957C230.398 32.5013 230.574 31.9805 230.574 31.3945Z" fill="black" class="svg-elem-1"></path>
<path d="M6.49219 8.5625V8.0625H5.75009L6.02879 8.75028L6.49219 8.5625ZM10.1445 8.5625L10.6085 8.37606L10.4825 8.0625H10.1445V8.5625ZM19.4609 31.7461L18.997 31.9325L19.4614 33.0882L19.925 31.9322L19.4609 31.7461ZM28.7578 8.5625V8.0625H28.4196L28.2937 8.3764L28.7578 8.5625ZM32.4297 8.5625L32.8929 8.75083L33.1727 8.0625H32.4297V8.5625ZM20.8672 37V37.5H21.2036L21.3304 37.1883L20.8672 37ZM18.0156 37L17.5522 37.1878L17.6787 37.5H18.0156V37ZM5.30078 8.5625V8.0625H4.80078V8.5625H5.30078ZM8.52344 8.5625L9.02321 8.5473L9.00847 8.0625H8.52344V8.5625ZM9.05078 25.9062H9.55078V25.8987L9.55055 25.8911L9.05078 25.9062ZM9.05078 37V37.5H9.55078V37H9.05078ZM5.30078 37H4.80078V37.5H5.30078V37ZM30.3789 8.5625V8.0625H29.8939L29.8791 8.5473L30.3789 8.5625ZM33.6016 8.5625H34.1016V8.0625H33.6016V8.5625ZM33.6016 37V37.5H34.1016V37H33.6016ZM29.8516 37H29.3516V37.5H29.8516V37ZM29.8516 25.9062L29.3518 25.8911L29.3516 25.8987V25.9062H29.8516ZM6.49219 9.0625H10.1445V8.0625H6.49219V9.0625ZM9.68059 8.74894L18.997 31.9325L19.9249 31.5597L10.6085 8.37606L9.68059 8.74894ZM19.925 31.9322L29.2219 8.7486L28.2937 8.3764L18.9969 31.56L19.925 31.9322ZM28.7578 9.0625H32.4297V8.0625H28.7578V9.0625ZM31.9665 8.37417L20.404 36.8117L21.3304 37.1883L32.8929 8.75083L31.9665 8.37417ZM20.8672 36.5H18.0156V37.5H20.8672V36.5ZM18.479 36.8122L6.95559 8.37472L6.02879 8.75028L17.5522 37.1878L18.479 36.8122ZM5.30078 9.0625H8.52344V8.0625H5.30078V9.0625ZM8.02367 8.5777L8.55101 25.9214L9.55055 25.8911L9.02321 8.5473L8.02367 8.5777ZM8.55078 25.9062V37H9.55078V25.9062H8.55078ZM9.05078 36.5H5.30078V37.5H9.05078V36.5ZM5.80078 37V8.5625H4.80078V37H5.80078ZM30.3789 9.0625H33.6016V8.0625H30.3789V9.0625ZM33.1016 8.5625V37H34.1016V8.5625H33.1016ZM33.6016 36.5H29.8516V37.5H33.6016V36.5ZM30.3516 37V25.9062H29.3516V37H30.3516ZM30.3513 25.9214L30.8787 8.5777L29.8791 8.5473L29.3518 25.8911L30.3513 25.9214ZM43.2891 19.1875H43.7891V19.1801L43.7888 19.1728L43.2891 19.1875ZM43.2891 37V37.5H43.7891V37H43.2891ZM39.6758 37H39.1758V37.5H39.6758V37ZM39.6758 15.8672V15.3672H39.1758V15.8672H39.6758ZM43.1914 15.8672L43.6912 15.8525L43.6769 15.3672H43.1914V15.8672ZM49.8906 15.75L50.3906 15.7529L50.3924 15.4419L50.1142 15.3028L49.8906 15.75ZM49.8711 19.1094L49.7649 19.598L50.3675 19.729L50.3711 19.1123L49.8711 19.1094ZM49.0117 18.9922L48.962 19.4897L48.9749 19.491L48.9879 19.4916L49.0117 18.9922ZM43.2305 22.1172L42.7662 21.9315L42.7643 21.9364L43.2305 22.1172ZM42.7422 24.2266L42.992 24.6597L43.2137 24.5318L43.2396 24.2771L42.7422 24.2266ZM41.7266 24.8125H41.2266V25.6782L41.9764 25.2456L41.7266 24.8125ZM42.0977 21.2188L41.6106 21.1055L41.6094 21.1109L42.0977 21.2188ZM43.2891 18.25L43.7138 18.5138L43.7155 18.511L43.2891 18.25ZM45.3203 16.2188L45.5735 16.6499L45.5756 16.6487L45.3203 16.2188ZM49.1875 15.5742L49.0931 16.0652L49.1022 16.067L49.1115 16.0684L49.1875 15.5742ZM42.7891 19.1875V37H43.7891V19.1875H42.7891ZM43.2891 36.5H39.6758V37.5H43.2891V36.5ZM40.1758 37V15.8672H39.1758V37H40.1758ZM39.6758 16.3672H43.1914V15.3672H39.6758V16.3672ZM42.6916 15.8819L42.7893 19.2022L43.7888 19.1728L43.6912 15.8525L42.6916 15.8819ZM49.3906 15.7471L49.3711 19.1065L50.3711 19.1123L50.3906 15.7529L49.3906 15.7471ZM49.9773 18.6208C49.6539 18.5505 49.3397 18.5072 49.0355 18.4928L48.9879 19.4916C49.2306 19.5032 49.4894 19.5381 49.7649 19.598L49.9773 18.6208ZM49.0615 18.4947C48.7806 18.4666 48.4639 18.4531 48.1133 18.4531V19.4531C48.4397 19.4531 48.7221 19.4657 48.962 19.4897L49.0615 18.4947ZM48.1133 18.4531C47.2284 18.4531 46.4264 18.5914 45.7173 18.8808L46.0952 19.8067C46.6621 19.5753 47.3315 19.4531 48.1133 19.4531V18.4531ZM45.7173 18.8808C45.0179 19.1663 44.4167 19.5701 43.9216 20.0942L44.6487 20.7808C45.0391 20.3674 45.5186 20.042 46.0952 19.8067L45.7173 18.8808ZM43.9216 20.0942C43.4321 20.6125 43.048 21.2272 42.7662 21.9315L43.6947 22.3029C43.9338 21.7051 44.2528 21.2 44.6487 20.7808L43.9216 20.0942ZM42.7643 21.9364C42.4988 22.6212 42.3268 23.3688 42.2448 24.176L43.2396 24.2771C43.3138 23.5479 43.4674 22.8892 43.6966 22.298L42.7643 21.9364ZM42.4923 23.7935L41.4767 24.3794L41.9764 25.2456L42.992 24.6597L42.4923 23.7935ZM42.2266 24.8125C42.2266 23.5687 42.3471 22.4073 42.5859 21.3266L41.6094 21.1109C41.3534 22.2698 41.2266 23.5042 41.2266 24.8125H42.2266ZM42.5847 21.332C42.8344 20.2583 43.2124 19.3209 43.7138 18.5138L42.8643 17.9862C42.298 18.8978 41.8818 19.9396 41.6107 21.1055L42.5847 21.332ZM43.7155 18.511C44.2098 17.7033 44.8293 17.0869 45.5735 16.6499L45.0671 15.7876C44.1707 16.3141 43.436 17.0519 42.8626 17.989L43.7155 18.511ZM45.5756 16.6487C46.3186 16.2075 47.2166 15.9766 48.2891 15.9766V14.9766C47.0699 14.9766 45.9887 15.2404 45.065 15.7888L45.5756 16.6487ZM48.2891 15.9766C48.5095 15.9766 48.7763 16.0043 49.0931 16.0652L49.2819 15.0832C48.9216 15.0139 48.5894 14.9766 48.2891 14.9766V15.9766ZM49.1115 16.0684C49.4493 16.1204 49.6137 16.1705 49.667 16.1972L50.1142 15.3028C49.9071 15.1992 49.6028 15.1322 49.2635 15.08L49.1115 16.0684ZM81.7656 33.9336H82.2656V33.4336H81.7656V33.9336ZM81.7656 37V37.5H82.2656V37H81.7656ZM66.707 37H66.207V37.5H66.707V37ZM66.707 33.9336V33.4336H66.207V33.9336H66.707ZM67.4688 8.5625H67.9688V8.0625H67.4688V8.5625ZM67.4688 37V37.5H67.9688V37H67.4688ZM63.6992 37H63.1992V37.5H63.6992V37ZM63.6992 8.5625V8.0625H63.1992V8.5625H63.6992ZM79.7734 20.7891H80.2734V20.2891H79.7734V20.7891ZM79.7734 23.8555V24.3555H80.2734V23.8555H79.7734ZM66.707 23.8555H66.207V24.3555H66.707V23.8555ZM66.707 20.7891V20.2891H66.207V20.7891H66.707ZM81.5703 8.5625H82.0703V8.0625H81.5703V8.5625ZM81.5703 11.6484V12.1484H82.0703V11.6484H81.5703ZM66.707 11.6484H66.207V12.1484H66.707V11.6484ZM66.707 8.5625V8.0625H66.207V8.5625H66.707ZM81.2656 33.9336V37H82.2656V33.9336H81.2656ZM81.7656 36.5H66.707V37.5H81.7656V36.5ZM67.207 37V33.9336H66.207V37H67.207ZM66.707 34.4336H81.7656V33.4336H66.707V34.4336ZM66.9688 8.5625V37H67.9688V8.5625H66.9688ZM67.4688 36.5H63.6992V37.5H67.4688V36.5ZM64.1992 37V8.5625H63.1992V37H64.1992ZM63.6992 9.0625H67.4688V8.0625H63.6992V9.0625ZM79.2734 20.7891V23.8555H80.2734V20.7891H79.2734ZM79.7734 23.3555H66.707V24.3555H79.7734V23.3555ZM67.207 23.8555V20.7891H66.207V23.8555H67.207ZM66.707 21.2891H79.7734V20.2891H66.707V21.2891ZM81.0703 8.5625V11.6484H82.0703V8.5625H81.0703ZM81.5703 11.1484H66.707V12.1484H81.5703V11.1484ZM67.207 11.6484V8.5625H66.207V11.6484H67.207ZM66.707 9.0625H81.5703V8.0625H66.707V9.0625ZM89.5 20.3789H90V20.3681L89.9995 20.3573L89.5 20.3789ZM89.5 37V37.5H90V37H89.5ZM85.8867 37H85.3867V37.5H85.8867V37ZM85.8867 15.8672V15.3672H85.3867V15.8672H85.8867ZM89.3047 15.8672L89.8042 15.8456L89.7835 15.3672H89.3047V15.8672ZM88.6406 25.6328L88.6212 26.1324L89.1406 26.1527V25.6328H88.6406ZM87.1367 25.5742L86.6367 25.5697L86.6324 26.0549L87.1173 26.0738L87.1367 25.5742ZM87.7812 21.5703L88.2546 21.7314L88.2551 21.7299L87.7812 21.5703ZM92.2344 16.2383L92.4489 16.6899L92.4513 16.6888L92.2344 16.2383ZM98.543 15.9062L98.3804 16.3791L98.3871 16.3813L98.543 15.9062ZM100.672 17.2344L100.311 17.5802L100.315 17.5841L100.672 17.2344ZM102.039 19.6172L101.563 19.7696L101.563 19.7714L102.039 19.6172ZM102.508 37V37.5H103.008V37H102.508ZM98.875 37H98.375V37.5H98.875V37ZM98.3867 20.457L97.9361 20.6737L97.9378 20.6771L98.3867 20.457ZM96.9609 18.9922L96.7373 19.4395L96.7449 19.4431L96.9609 18.9922ZM92.1953 19.0898L91.9686 18.6442L91.9654 18.6458L92.1953 19.0898ZM90.3008 20.6523L89.9111 20.339L89.9074 20.3438L90.3008 20.6523ZM89.0703 22.9375L88.5981 22.773L88.5967 22.7772L89.0703 22.9375ZM89 20.3789V37H90V20.3789H89ZM89.5 36.5H85.8867V37.5H89.5V36.5ZM86.3867 37V15.8672H85.3867V37H86.3867ZM85.8867 16.3672H89.3047V15.3672H85.8867V16.3672ZM88.8052 15.8888L89.0005 20.4005L89.9995 20.3573L89.8042 15.8456L88.8052 15.8888ZM88.6601 25.1332L87.1562 25.0746L87.1173 26.0738L88.6212 26.1324L88.6601 25.1332ZM87.6367 25.5787C87.6493 24.1805 87.857 22.8994 88.2546 21.7314L87.3079 21.4092C86.8722 22.6892 86.6502 24.0773 86.6367 25.5697L87.6367 25.5787ZM88.2551 21.7299C88.6542 20.5451 89.2118 19.5263 89.9241 18.6667L89.1541 18.0286C88.3559 18.992 87.7416 20.1216 87.3074 21.4107L88.2551 21.7299ZM89.9241 18.6667C90.6341 17.8098 91.4748 17.1526 92.4489 16.6899L92.0198 15.7866C90.9106 16.3135 89.9545 17.0626 89.1541 18.0286L89.9241 18.6667ZM92.4513 16.6888C93.4324 16.2164 94.5227 15.9766 95.7305 15.9766V14.9766C94.3862 14.9766 93.1458 15.2445 92.0175 15.7878L92.4513 16.6888ZM95.7305 15.9766C96.7266 15.9766 97.6079 16.1136 98.3804 16.3791L98.7055 15.4334C97.8113 15.126 96.8176 14.9766 95.7305 14.9766V15.9766ZM98.3871 16.3813C99.1453 16.6301 99.7836 17.0296 100.311 17.5802L101.033 16.8886C100.388 16.2152 99.6073 15.7293 98.6989 15.4312L98.3871 16.3813ZM100.315 17.5841C100.849 18.1305 101.269 18.8527 101.563 19.7696L102.515 19.4648C102.184 18.4286 101.692 17.5622 101.029 16.8846L100.315 17.5841ZM101.563 19.7714C101.855 20.6704 102.008 21.7933 102.008 23.1523H103.008C103.008 21.7249 102.848 20.4911 102.515 19.4629L101.563 19.7714ZM102.008 23.1523V37H103.008V23.1523H102.008ZM102.508 36.5H98.875V37.5H102.508V36.5ZM99.375 37V23.1133H98.375V37H99.375ZM99.375 23.1133C99.375 21.9649 99.2073 20.995 98.8357 20.237L97.9378 20.6771C98.2172 21.2472 98.375 22.0481 98.375 23.1133H99.375ZM98.8373 20.2404C98.467 19.47 97.9134 18.8941 97.177 18.5413L96.7449 19.4431C97.2585 19.6892 97.6554 20.0899 97.9361 20.6737L98.8373 20.2404ZM97.1845 18.545C96.4723 18.1888 95.6226 18.0234 94.6562 18.0234V19.0234C95.5128 19.0234 96.1996 19.1705 96.7373 19.4394L97.1845 18.545ZM94.6562 18.0234C93.6854 18.0234 92.7865 18.2281 91.9686 18.6442L92.422 19.5355C93.0885 19.1964 93.8303 19.0234 94.6562 19.0234V18.0234ZM91.9654 18.6458C91.1721 19.0566 90.4869 19.6229 89.9111 20.3391L90.6905 20.9656C91.1824 20.3537 91.7602 19.8782 92.4252 19.5338L91.9654 18.6458ZM89.9074 20.3438C89.35 21.0545 88.9143 21.8656 88.5982 22.773L89.5425 23.102C89.8252 22.2906 90.2099 21.5784 90.6942 20.9609L89.9074 20.3438ZM88.5967 22.7772C88.2917 23.6784 88.1406 24.6313 88.1406 25.6328H89.1406C89.1406 24.7333 89.276 23.8893 89.5439 23.0978L88.5967 22.7772ZM121.688 15.8672V15.3672H121.222L121.189 15.8316L121.688 15.8672ZM124.969 15.8672H125.469V15.3672H124.969V15.8672ZM120.672 44.3047L120.448 43.8574L120.443 43.8601L120.672 44.3047ZM113.445 44.9883L113.561 44.5017L113.556 44.5007L113.445 44.9883ZM110.555 43.8359L110.804 43.4025L110.802 43.4014L110.555 43.8359ZM108.191 41.668L107.816 41.3373L107.556 41.6324L107.782 41.9547L108.191 41.668ZM110.086 39.5195L110.471 39.2004L110.098 38.7503L109.711 39.1888L110.086 39.5195ZM112.859 41.7461L112.661 42.205L112.663 42.206L112.859 41.7461ZM120.652 39.8125L120.216 39.5673L120.212 39.5755L120.652 39.8125ZM121.355 20.5156L120.857 20.48L120.855 20.4978V20.5156H121.355ZM107.703 21.8633L107.223 21.7222L107.223 21.7253L107.703 21.8633ZM109.363 18.4453L108.967 18.141L108.964 18.1444L109.363 18.4453ZM112 16.2578L112.221 16.7062L112.226 16.7039L112 16.2578ZM118.953 16.1797L118.739 16.6316L118.746 16.6349L118.953 16.1797ZM121.492 18.1914L121.098 18.4988L121.103 18.5052L121.492 18.1914ZM123.992 25.5547H124.492V25.5297L124.49 25.5049L123.992 25.5547ZM123.992 27.3516L124.49 27.3976L124.492 27.3746V27.3516H123.992ZM123.152 31.5312L122.678 31.3716L122.677 31.3761L123.152 31.5312ZM121.492 34.6953L121.103 34.3815L121.1 34.3851L121.492 34.6953ZM118.953 36.707L119.16 37.1622L119.165 37.16L118.953 36.707ZM112 36.5898L111.767 37.0324L111.77 37.0336L112 36.5898ZM109.383 34.3438L108.984 34.6455L109.383 34.3438ZM107.703 30.9453L107.223 31.0833L107.224 31.089L107.703 30.9453ZM111.062 29.6367L110.575 29.7466L110.576 29.7531L111.062 29.6367ZM112.059 32.0781L111.635 32.3446L111.639 32.3501L112.059 32.0781ZM113.797 33.7383L113.548 34.172L113.554 34.1754L113.797 33.7383ZM121.141 31.5508L120.705 31.3056L120.702 31.3109L121.141 31.5508ZM122.234 28.8359L122.717 28.9648L122.734 28.9015V28.8359H122.234ZM122.234 24.1289H122.734V24.0794L122.725 24.0308L122.234 24.1289ZM121.57 22.0586L121.11 22.2535L121.115 22.2641L121.57 22.0586ZM120.438 20.2617L120.057 20.5865L120.066 20.5962L120.438 20.2617ZM113.797 19.1484L114.046 19.5821L114.048 19.5806L113.797 19.1484ZM112.059 20.8281L111.637 20.5597L111.635 20.5617L112.059 20.8281ZM111.062 23.2891L110.576 23.1742L110.575 23.1791L111.062 23.2891ZM121.688 16.3672H124.969V15.3672H121.688V16.3672ZM124.469 15.8672V36.5508H125.469V15.8672H124.469ZM124.469 36.5508C124.469 38.3452 124.105 39.8436 123.402 41.0674L124.27 41.5654C125.077 40.159 125.469 38.4804 125.469 36.5508H124.469ZM123.402 41.0674C122.696 42.2974 121.714 43.2245 120.448 43.8575L120.895 44.7519C122.338 44.0308 123.465 42.9656 124.27 41.5654L123.402 41.0674ZM120.443 43.8601C119.184 44.5082 117.715 44.8398 116.023 44.8398V45.8398C117.848 45.8398 119.478 45.4814 120.901 44.7493L120.443 43.8601ZM116.023 44.8398C115.345 44.8398 114.526 44.7304 113.561 44.5017L113.33 45.4748C114.344 45.7149 115.244 45.8398 116.023 45.8398V44.8398ZM113.556 44.5007C112.632 44.2913 111.715 43.9269 110.804 43.4025L110.305 44.2693C111.295 44.8388 112.305 45.2425 113.335 45.4759L113.556 44.5007ZM110.802 43.4014C109.931 42.9054 109.198 42.234 108.601 41.3812L107.782 41.9547C108.461 42.9249 109.303 43.6988 110.307 44.2704L110.802 43.4014ZM108.566 41.9987L110.461 39.8502L109.711 39.1888L107.816 41.3373L108.566 41.9987ZM109.701 39.8387C110.621 40.9483 111.606 41.7487 112.661 42.205L113.058 41.2872C112.186 40.9101 111.321 40.2262 110.471 39.2004L109.701 39.8387ZM112.663 42.206C113.694 42.646 114.725 42.8711 115.75 42.8711V41.8711C114.874 41.8711 113.977 41.6795 113.056 41.2862L112.663 42.206ZM115.75 42.8711C116.958 42.8711 118.03 42.6444 118.948 42.171L118.49 41.2822C117.741 41.6681 116.834 41.8711 115.75 41.8711V42.8711ZM118.948 42.171C119.873 41.6938 120.59 40.9823 121.093 40.0495L120.212 39.5755C119.803 40.3354 119.231 40.8999 118.49 41.2822L118.948 42.171ZM121.088 40.0576C121.609 39.1313 121.855 38.0129 121.855 36.7266H120.855C120.855 37.8882 120.633 38.827 120.217 39.5674L121.088 40.0576ZM121.855 36.7266V20.5156H120.855V36.7266H121.855ZM121.854 20.5512L122.186 15.9028L121.189 15.8316L120.857 20.48L121.854 20.5512ZM107.637 26.668V26.2578H106.637V26.668H107.637ZM107.637 26.2578C107.637 24.6818 107.821 23.2643 108.184 22.0013L107.223 21.7253C106.83 23.0925 106.637 24.6047 106.637 26.2578H107.637ZM108.183 22.0044C108.559 20.7246 109.088 19.6416 109.763 18.7462L108.964 18.1444C108.206 19.1501 107.628 20.3457 107.223 21.7222L108.183 22.0044ZM109.76 18.7496C110.445 17.8572 111.264 17.1785 112.221 16.7062L111.779 15.8095C110.678 16.3527 109.74 17.1324 108.967 18.141L109.76 18.7496ZM112.226 16.7039C113.177 16.2225 114.257 15.9766 115.477 15.9766V14.9766C114.118 14.9766 112.881 15.2514 111.774 15.8117L112.226 16.7039ZM115.477 15.9766C116.746 15.9766 117.829 16.2005 118.739 16.6316L119.167 15.7278C118.098 15.2214 116.863 14.9766 115.477 14.9766V15.9766ZM118.746 16.6349C119.674 17.0565 120.456 17.6758 121.098 18.4988L121.887 17.884C121.148 16.9362 120.238 16.2143 119.16 15.7245L118.746 16.6349ZM121.103 18.5052C121.762 19.3234 122.289 20.3221 122.677 21.5106L123.628 21.2004C123.208 19.9149 122.628 18.8042 121.881 17.8776L121.103 18.5052ZM122.677 21.5106C123.067 22.7072 123.341 24.0707 123.495 25.6044L124.49 25.5049C124.331 23.9137 124.045 22.4777 123.628 21.2004L122.677 21.5106ZM123.492 25.5547V27.3516H124.492V25.5547H123.492ZM123.494 27.3055C123.354 28.8235 123.081 30.1777 122.679 31.3716L123.626 31.6909C124.057 30.4108 124.344 28.9786 124.49 27.3976L123.494 27.3055ZM122.677 31.3761C122.289 32.5646 121.762 33.5633 121.103 34.3815L121.881 35.0091C122.628 34.0825 123.208 32.9719 123.628 31.6864L122.677 31.3761ZM121.1 34.3851C120.458 35.1969 119.673 35.8184 118.741 36.2541L119.165 37.16C120.238 36.6581 121.146 35.9385 121.884 35.0055L121.1 34.3851ZM118.746 36.2518C117.821 36.6723 116.722 36.8906 115.438 36.8906V37.8906C116.835 37.8906 118.08 37.6532 119.16 37.1622L118.746 36.2518ZM115.438 36.8906C114.247 36.8906 113.182 36.6397 112.23 36.1461L111.77 37.0336C112.876 37.6077 114.102 37.8906 115.438 37.8906V36.8906ZM112.233 36.1473C111.285 35.6494 110.469 34.9502 109.782 34.042L108.984 34.6455C109.755 35.6644 110.683 36.4626 111.767 37.0324L112.233 36.1473ZM109.782 34.042C109.092 33.1315 108.558 32.0538 108.182 30.8016L107.224 31.089C107.63 32.441 108.215 33.6289 108.984 34.6455L109.782 34.042ZM108.184 30.8073C107.82 29.5422 107.637 28.1634 107.637 26.668H106.637C106.637 28.2455 106.831 29.7182 107.223 31.0833L108.184 30.8073ZM110.25 26.2578V26.668H111.25V26.2578H110.25ZM110.25 26.668C110.25 27.7555 110.357 28.7823 110.575 29.7466L111.55 29.5268C111.351 28.6422 111.25 27.6898 111.25 26.668H110.25ZM110.576 29.7531C110.809 30.7232 111.16 31.5891 111.635 32.3445L112.482 31.8117C112.072 31.1609 111.759 30.3992 111.549 29.5203L110.576 29.7531ZM111.639 32.3501C112.136 33.1176 112.774 33.7273 113.548 34.1719L114.046 33.3047C113.414 32.9419 112.892 32.4449 112.478 31.8062L111.639 32.3501ZM113.554 34.1754C114.346 34.6152 115.273 34.8242 116.316 34.8242V33.8242C115.407 33.8242 114.654 33.6426 114.04 33.3012L113.554 34.1754ZM116.316 34.8242C117.584 34.8242 118.675 34.5554 119.558 33.9817L119.013 33.1433C118.333 33.5852 117.445 33.8242 116.316 33.8242V34.8242ZM119.558 33.9817C120.41 33.4279 121.085 32.6952 121.579 31.7907L120.702 31.3109C120.285 32.0731 119.723 32.6815 119.013 33.1433L119.558 33.9817ZM121.576 31.7959C122.067 30.9239 122.447 29.9796 122.717 28.9648L121.751 28.7071C121.501 29.6454 121.152 30.511 120.705 31.3057L121.576 31.7959ZM122.734 28.8359V24.1289H121.734V28.8359H122.734ZM122.725 24.0308C122.574 23.2778 122.341 22.5516 122.026 21.853L121.115 22.2641C121.398 22.8937 121.608 23.5477 121.744 24.227L122.725 24.0308ZM122.031 21.8638C121.724 21.1381 121.317 20.4914 120.809 19.9272L120.066 20.5962C120.496 21.0737 120.844 21.625 121.11 22.2534L122.031 21.8638ZM120.818 19.9371C120.312 19.3449 119.686 18.8791 118.948 18.5382L118.529 19.4462C119.144 19.7303 119.651 20.1108 120.057 20.5863L120.818 19.9371ZM118.948 18.5382C118.192 18.1894 117.324 18.0234 116.355 18.0234V19.0234C117.21 19.0234 117.93 19.17 118.529 19.4462L118.948 18.5382ZM116.355 18.0234C115.295 18.0234 114.352 18.2472 113.545 18.7163L114.048 19.5806C114.674 19.2163 115.437 19.0234 116.355 19.0234V18.0234ZM113.548 18.7148C112.771 19.1606 112.134 19.7786 111.637 20.5597L112.48 21.0966C112.895 20.4453 113.416 19.9435 114.046 19.5821L113.548 18.7148ZM111.635 20.5617C111.159 21.3183 110.808 22.1914 110.576 23.1742L111.549 23.404C111.76 22.5117 112.073 21.7442 112.482 21.0945L111.635 20.5617ZM110.575 23.1791C110.357 24.1435 110.25 25.1702 110.25 26.2578H111.25C111.25 25.236 111.351 24.2836 111.55 23.399L110.575 23.1791ZM134.383 15.8672H134.883V15.3672H134.383V15.8672ZM134.383 37V37.5H134.883V37H134.383ZM130.75 37H130.25V37.5H130.75V37ZM130.75 15.8672V15.3672H130.25V15.8672H130.75ZM131.004 8.77734L130.633 8.44215L130.627 8.44895L131.004 8.77734ZM134.188 8.77734L133.816 9.11254L133.822 9.11892L134.188 8.77734ZM134.188 11.707L133.822 11.3655L133.822 11.3659L134.188 11.707ZM131.004 11.707L130.627 12.0354L130.633 12.0419L130.638 12.0482L131.004 11.707ZM133.883 15.8672V37H134.883V15.8672H133.883ZM134.383 36.5H130.75V37.5H134.383V36.5ZM131.25 37V15.8672H130.25V37H131.25ZM130.75 16.3672H134.383V15.3672H130.75V16.3672ZM130.977 10.2617C130.977 9.78419 131.116 9.40947 131.381 9.10573L130.627 8.44895C130.188 8.9525 129.977 9.56738 129.977 10.2617H130.977ZM131.375 9.11249C131.619 8.8425 132 8.67188 132.605 8.67188V7.67188C131.805 7.67188 131.118 7.90489 130.633 8.4422L131.375 9.11249ZM132.605 8.67188C133.195 8.67188 133.571 8.84057 133.816 9.11249L134.559 8.4422C134.075 7.90683 133.396 7.67188 132.605 7.67188V8.67188ZM133.822 9.11892C134.108 9.424 134.254 9.79425 134.254 10.2617H135.254C135.254 9.55731 135.022 8.93798 134.553 8.43577L133.822 9.11892ZM134.254 10.2617C134.254 10.6966 134.112 11.0558 133.822 11.3655L134.553 12.0486C135.018 11.551 135.254 10.9466 135.254 10.2617H134.254ZM133.822 11.3659C133.578 11.6277 133.2 11.793 132.605 11.793V12.793C133.391 12.793 134.068 12.5676 134.553 12.0482L133.822 11.3659ZM132.605 11.793C131.995 11.793 131.612 11.6259 131.369 11.3659L130.638 12.0482C131.125 12.5694 131.81 12.793 132.605 12.793V11.793ZM131.381 11.3786C131.113 11.0705 130.977 10.707 130.977 10.2617H129.977C129.977 10.9363 130.192 11.5363 130.627 12.0354L131.381 11.3786ZM143.797 20.3789H144.297V20.3681L144.296 20.3573L143.797 20.3789ZM143.797 37V37.5H144.297V37H143.797ZM140.184 37H139.684V37.5H140.184V37ZM140.184 15.8672V15.3672H139.684V15.8672H140.184ZM143.602 15.8672L144.101 15.8456L144.08 15.3672H143.602V15.8672ZM142.938 25.6328L142.918 26.1324L143.438 26.1527V25.6328H142.938ZM141.434 25.5742L140.934 25.5697L140.929 26.0549L141.414 26.0738L141.434 25.5742ZM142.078 21.5703L142.551 21.7314L142.552 21.7299L142.078 21.5703ZM146.531 16.2383L146.746 16.6899L146.748 16.6888L146.531 16.2383ZM152.84 15.9062L152.677 16.3791L152.684 16.3813L152.84 15.9062ZM154.969 17.2344L154.608 17.5802L154.611 17.5841L154.969 17.2344ZM156.336 19.6172L155.86 19.7696L155.86 19.7714L156.336 19.6172ZM156.805 37V37.5H157.305V37H156.805ZM153.172 37H152.672V37.5H153.172V37ZM152.684 20.457L152.233 20.6737L152.235 20.6771L152.684 20.457ZM151.258 18.9922L151.034 19.4395L151.042 19.4431L151.258 18.9922ZM146.492 19.0898L146.265 18.6442L146.262 18.6458L146.492 19.0898ZM144.598 20.6523L144.208 20.339L144.204 20.3438L144.598 20.6523ZM143.367 22.9375L142.895 22.773L142.894 22.7772L143.367 22.9375ZM143.297 20.3789V37H144.297V20.3789H143.297ZM143.797 36.5H140.184V37.5H143.797V36.5ZM140.684 37V15.8672H139.684V37H140.684ZM140.184 16.3672H143.602V15.3672H140.184V16.3672ZM143.102 15.8888L143.297 20.4005L144.296 20.3573L144.101 15.8456L143.102 15.8888ZM142.957 25.1332L141.453 25.0746L141.414 26.0738L142.918 26.1324L142.957 25.1332ZM141.934 25.5787C141.946 24.1805 142.154 22.8994 142.551 21.7314L141.605 21.4092C141.169 22.6892 140.947 24.0773 140.934 25.5697L141.934 25.5787ZM142.552 21.7299C142.951 20.5451 143.509 19.5263 144.221 18.6667L143.451 18.0286C142.653 18.992 142.039 20.1216 141.604 21.4107L142.552 21.7299ZM144.221 18.6667C144.931 17.8098 145.772 17.1526 146.746 16.6899L146.317 15.7866C145.207 16.3135 144.251 17.0626 143.451 18.0286L144.221 18.6667ZM146.748 16.6888C147.729 16.2164 148.82 15.9766 150.027 15.9766V14.9766C148.683 14.9766 147.443 15.2445 146.314 15.7878L146.748 16.6888ZM150.027 15.9766C151.024 15.9766 151.905 16.1136 152.677 16.3791L153.002 15.4334C152.108 15.126 151.115 14.9766 150.027 14.9766V15.9766ZM152.684 16.3813C153.442 16.6301 154.08 17.0296 154.608 17.5802L155.33 16.8886C154.685 16.2152 153.904 15.7293 152.996 15.4312L152.684 16.3813ZM154.611 17.5841C155.146 18.1305 155.566 18.8527 155.86 19.7696L156.812 19.4648C156.481 18.4286 155.989 17.5622 155.326 16.8846L154.611 17.5841ZM155.86 19.7714C156.152 20.6704 156.305 21.7933 156.305 23.1523H157.305C157.305 21.7249 157.145 20.4911 156.812 19.4629L155.86 19.7714ZM156.305 23.1523V37H157.305V23.1523H156.305ZM156.805 36.5H153.172V37.5H156.805V36.5ZM153.672 37V23.1133H152.672V37H153.672ZM153.672 23.1133C153.672 21.9649 153.504 20.995 153.133 20.237L152.235 20.6771C152.514 21.2472 152.672 22.0481 152.672 23.1133H153.672ZM153.134 20.2404C152.764 19.47 152.21 18.8941 151.474 18.5413L151.042 19.4431C151.555 19.6892 151.952 20.0899 152.233 20.6737L153.134 20.2404ZM151.481 18.545C150.769 18.1888 149.919 18.0234 148.953 18.0234V19.0234C149.81 19.0234 150.496 19.1705 151.034 19.4394L151.481 18.545ZM148.953 18.0234C147.982 18.0234 147.083 18.2281 146.265 18.6442L146.719 19.5355C147.385 19.1964 148.127 19.0234 148.953 19.0234V18.0234ZM146.262 18.6458C145.469 19.0566 144.784 19.6229 144.208 20.3391L144.987 20.9656C145.479 20.3537 146.057 19.8782 146.722 19.5338L146.262 18.6458ZM144.204 20.3438C143.647 21.0545 143.211 21.8656 142.895 22.773L143.839 23.102C144.122 22.2906 144.507 21.5784 144.991 20.9609L144.204 20.3438ZM142.894 22.7772C142.589 23.6784 142.438 24.6313 142.438 25.6328H143.438C143.438 24.7333 143.573 23.8893 143.841 23.0978L142.894 22.7772ZM167.059 36.6484L166.862 37.1081L166.868 37.1106L167.059 36.6484ZM163.992 34.5195L163.626 34.8598L163.628 34.8625L163.992 34.5195ZM162.039 31.2773L161.569 31.4486L162.039 31.2773ZM162.117 21.7656L162.585 21.9427L162.585 21.9412L162.117 21.7656ZM164.188 18.3281L163.821 17.9875L164.188 18.3281ZM174.5 16.2578L174.285 16.7092L174.287 16.7102L174.5 16.2578ZM177.215 18.4453L176.815 18.7453L176.817 18.748L177.215 18.4453ZM178.777 21.7266L178.294 21.856L178.295 21.8573L178.777 21.7266ZM179.285 27.4492V27.9492H179.785V27.4492H179.285ZM163.504 27.4492H163.004V27.9492H163.504V27.4492ZM163.504 24.5V24H163.004V24.5H163.504ZM175.672 24.5V25H176.172V24.5H175.672ZM175.672 24.2266H176.172V24.2127L176.171 24.1988L175.672 24.2266ZM175.086 21.4922L174.617 21.6647L174.619 21.6708L175.086 21.4922ZM168.328 18.9727L168.548 19.4216L168.555 19.4182L168.328 18.9727ZM165.398 30.0078L164.921 30.1554L164.923 30.1638L165.398 30.0078ZM166.629 32.3125L166.239 32.6258L166.243 32.6304L166.629 32.3125ZM168.602 33.875L168.381 34.3237L168.384 34.3252L168.602 33.875ZM176.824 31.5703L177.135 31.1789L176.736 30.8612L176.426 31.2675L176.824 31.5703ZM179.012 33.3086L179.429 33.5841L179.681 33.202L179.323 32.9171L179.012 33.3086ZM174.676 36.8047L174.498 36.3373L174.496 36.338L174.676 36.8047ZM171.062 36.8906C169.648 36.8906 168.379 36.6529 167.249 36.1863L166.868 37.1106C168.134 37.6335 169.534 37.8906 171.062 37.8906V36.8906ZM167.256 36.1889C166.132 35.7073 165.167 35.0366 164.356 34.1765L163.628 34.8625C164.536 35.8253 165.616 36.574 166.862 37.108L167.256 36.1889ZM164.359 34.1793C163.561 33.32 162.943 32.2979 162.509 31.1061L161.569 31.4486C162.046 32.7568 162.731 33.8961 163.626 34.8598L164.359 34.1793ZM162.509 31.1061C162.075 29.9169 161.855 28.6085 161.855 27.1758H160.855C160.855 28.7119 161.091 30.1378 161.569 31.4486L162.509 31.1061ZM161.855 27.1758V26.3555H160.855V27.1758H161.855ZM161.855 26.3555C161.855 24.6855 162.102 23.2173 162.585 21.9427L161.65 21.5886C161.117 22.9963 160.855 24.5879 160.855 26.3555H161.855ZM162.585 21.9412C163.073 20.6403 163.731 19.5526 164.554 18.6687L163.821 17.9875C162.899 18.9786 162.177 20.1826 161.649 21.5901L162.585 21.9412ZM164.554 18.6687C165.382 17.7784 166.316 17.1104 167.356 16.6577L166.957 15.7408C165.783 16.2516 164.738 17.0028 163.821 17.9875L164.554 18.6687ZM167.356 16.6577C168.401 16.2028 169.479 15.9766 170.594 15.9766V14.9766C169.339 14.9766 168.125 15.2321 166.957 15.7408L167.356 16.6577ZM170.594 15.9766C172.048 15.9766 173.273 16.2273 174.285 16.7092L174.715 15.8064C173.54 15.2467 172.161 14.9766 170.594 14.9766V15.9766ZM174.287 16.7102C175.323 17.1979 176.163 17.876 176.815 18.7453L177.615 18.1453C176.861 17.1396 175.89 16.3594 174.713 15.8054L174.287 16.7102ZM176.817 18.748C177.476 19.6147 177.971 20.6478 178.294 21.856L179.26 21.5971C178.907 20.2792 178.36 19.1249 177.613 18.1426L176.817 18.748ZM178.295 21.8573C178.62 23.059 178.785 24.3816 178.785 25.8281H179.785C179.785 24.3059 179.612 22.8941 179.26 21.5959L178.295 21.8573ZM178.785 25.8281V27.4492H179.785V25.8281H178.785ZM179.285 26.9492H163.504V27.9492H179.285V26.9492ZM164.004 27.4492V24.5H163.004V27.4492H164.004ZM163.504 25H175.672V24H163.504V25ZM176.172 24.5V24.2266H175.172V24.5H176.172ZM176.171 24.1988C176.116 23.2092 175.91 22.2469 175.553 21.3136L174.619 21.6708C174.939 22.5083 175.123 23.3689 175.173 24.2543L176.171 24.1988ZM175.555 21.3197C175.199 20.3512 174.625 19.5458 173.836 18.9143L173.211 19.6951C173.854 20.2094 174.322 20.8623 174.617 21.6647L175.555 21.3197ZM173.836 18.9143C173.004 18.2492 171.905 17.9453 170.594 17.9453V18.9453C171.757 18.9453 172.61 19.2144 173.211 19.6951L173.836 18.9143ZM170.594 17.9453C169.699 17.9453 168.866 18.1376 168.101 18.5271L168.555 19.4182C169.171 19.1045 169.848 18.9453 170.594 18.9453V17.9453ZM168.108 18.5238C167.339 18.9012 166.685 19.4647 166.147 20.2011L166.954 20.7911C167.406 20.1733 167.937 19.7212 168.548 19.4216L168.108 18.5238ZM166.147 20.2011C165.61 20.9354 165.203 21.8193 164.917 22.8417L165.88 23.1114C166.141 22.1807 166.502 21.4109 166.954 20.7911L166.147 20.2011ZM164.917 22.8417C164.629 23.8718 164.488 25.045 164.488 26.3555H165.488C165.488 25.1138 165.621 24.0345 165.88 23.1114L164.917 22.8417ZM164.488 26.3555V27.1758H165.488V26.3555H164.488ZM164.488 27.1758C164.488 28.2243 164.631 29.2184 164.921 30.1553L165.876 29.8603C165.619 29.0264 165.488 28.1325 165.488 27.1758H164.488ZM164.923 30.1638C165.227 31.0889 165.665 31.9113 166.239 32.6258L167.019 31.9992C166.525 31.3856 166.143 30.6715 165.873 29.8518L164.923 30.1638ZM166.243 32.6304C166.835 33.349 167.549 33.9146 168.381 34.3237L168.822 33.4263C168.118 33.0802 167.517 32.6041 167.015 31.9946L166.243 32.6304ZM168.384 34.3252C169.242 34.7399 170.203 34.9414 171.258 34.9414V33.9414C170.333 33.9414 169.524 33.7653 168.819 33.4248L168.384 34.3252ZM171.258 34.9414C172.602 34.9414 173.775 34.6669 174.754 34.0911L174.246 33.2292C173.454 33.6951 172.466 33.9414 171.258 33.9414V34.9414ZM174.754 34.0911C175.699 33.5352 176.521 32.7937 177.222 31.8732L176.426 31.2675C175.799 32.0917 175.072 32.7435 174.246 33.2292L174.754 34.0911ZM176.513 31.9618L178.701 33.7L179.323 32.9171L177.135 31.1789L176.513 31.9618ZM178.594 33.0331C178.166 33.6823 177.616 34.3075 176.941 34.9075L177.606 35.655C178.337 35.005 178.946 34.3151 179.429 33.5841L178.594 33.0331ZM176.941 34.9075C176.291 35.4859 175.48 35.9646 174.498 36.3373L174.853 37.2721C175.929 36.8635 176.85 36.3266 177.606 35.655L176.941 34.9075ZM174.496 36.338C173.551 36.7014 172.411 36.8906 171.062 36.8906V37.8906C172.501 37.8906 173.769 37.6892 174.855 37.2714L174.496 36.338ZM188.27 36.6484L188.073 37.1081L188.079 37.1106L188.27 36.6484ZM185.203 34.5195L184.837 34.8598L184.839 34.8625L185.203 34.5195ZM183.25 31.2773L182.78 31.4486L183.25 31.2773ZM183.328 21.7656L183.796 21.9427L183.796 21.9412L183.328 21.7656ZM185.398 18.3281L185.032 17.9875L185.398 18.3281ZM195.711 16.2578L195.496 16.7092L195.498 16.7102L195.711 16.2578ZM198.426 18.4453L198.026 18.7453L198.028 18.748L198.426 18.4453ZM199.988 21.7266L199.505 21.856L199.506 21.8573L199.988 21.7266ZM200.496 27.4492V27.9492H200.996V27.4492H200.496ZM184.715 27.4492H184.215V27.9492H184.715V27.4492ZM184.715 24.5V24H184.215V24.5H184.715ZM196.883 24.5V25H197.383V24.5H196.883ZM196.883 24.2266H197.383V24.2127L197.382 24.1988L196.883 24.2266ZM196.297 21.4922L195.828 21.6647L195.83 21.6708L196.297 21.4922ZM189.539 18.9727L189.759 19.4216L189.766 19.4182L189.539 18.9727ZM186.609 30.0078L186.132 30.1554L186.134 30.1638L186.609 30.0078ZM187.84 32.3125L187.45 32.6258L187.454 32.6304L187.84 32.3125ZM189.812 33.875L189.592 34.3237L189.595 34.3252L189.812 33.875ZM198.035 31.5703L198.346 31.1789L197.947 30.8612L197.637 31.2675L198.035 31.5703ZM200.223 33.3086L200.64 33.5841L200.892 33.202L200.534 32.9171L200.223 33.3086ZM195.887 36.8047L195.709 36.3373L195.707 36.338L195.887 36.8047ZM192.273 36.8906C190.859 36.8906 189.59 36.6529 188.46 36.1863L188.079 37.1106C189.345 37.6335 190.745 37.8906 192.273 37.8906V36.8906ZM188.466 36.1889C187.343 35.7073 186.378 35.0366 185.567 34.1765L184.839 34.8625C185.747 35.8253 186.827 36.574 188.073 37.108L188.466 36.1889ZM185.57 34.1793C184.772 33.32 184.154 32.2979 183.72 31.1061L182.78 31.4486C183.257 32.7568 183.942 33.8961 184.837 34.8598L185.57 34.1793ZM183.72 31.1061C183.286 29.9169 183.066 28.6085 183.066 27.1758H182.066C182.066 28.7119 182.302 30.1378 182.78 31.4486L183.72 31.1061ZM183.066 27.1758V26.3555H182.066V27.1758H183.066ZM183.066 26.3555C183.066 24.6855 183.313 23.2173 183.796 21.9427L182.861 21.5886C182.328 22.9963 182.066 24.5879 182.066 26.3555H183.066ZM183.796 21.9412C184.284 20.6403 184.942 19.5526 185.764 18.6687L185.032 17.9875C184.11 18.9786 183.388 20.1826 182.86 21.5901L183.796 21.9412ZM185.764 18.6687C186.593 17.7784 187.527 17.1104 188.567 16.6577L188.168 15.7408C186.994 16.2516 185.949 17.0028 185.032 17.9875L185.764 18.6687ZM188.567 16.6577C189.612 16.2028 190.69 15.9766 191.805 15.9766V14.9766C190.55 14.9766 189.336 15.2321 188.168 15.7408L188.567 16.6577ZM191.805 15.9766C193.259 15.9766 194.484 16.2273 195.496 16.7092L195.926 15.8064C194.751 15.2467 193.372 14.9766 191.805 14.9766V15.9766ZM195.498 16.7102C196.534 17.1979 197.374 17.876 198.026 18.7453L198.826 18.1453C198.071 17.1396 197.101 16.3594 195.924 15.8054L195.498 16.7102ZM198.028 18.748C198.687 19.6147 199.181 20.6478 199.505 21.856L200.471 21.5971C200.118 20.2792 199.571 19.1249 198.824 18.1426L198.028 18.748ZM199.506 21.8573C199.831 23.059 199.996 24.3816 199.996 25.8281H200.996C200.996 24.3059 200.823 22.8941 200.471 21.5959L199.506 21.8573ZM199.996 25.8281V27.4492H200.996V25.8281H199.996ZM200.496 26.9492H184.715V27.9492H200.496V26.9492ZM185.215 27.4492V24.5H184.215V27.4492H185.215ZM184.715 25H196.883V24H184.715V25ZM197.383 24.5V24.2266H196.383V24.5H197.383ZM197.382 24.1988C197.327 23.2092 197.121 22.2469 196.764 21.3136L195.83 21.6708C196.15 22.5083 196.334 23.3689 196.384 24.2543L197.382 24.1988ZM196.766 21.3197C196.41 20.3512 195.836 19.5458 195.047 18.9143L194.422 19.6951C195.065 20.2094 195.533 20.8623 195.828 21.6647L196.766 21.3197ZM195.047 18.9143C194.215 18.2492 193.116 17.9453 191.805 17.9453V18.9453C192.968 18.9453 193.821 19.2144 194.422 19.6951L195.047 18.9143ZM191.805 17.9453C190.91 17.9453 190.077 18.1376 189.312 18.5271L189.766 19.4182C190.382 19.1045 191.058 18.9453 191.805 18.9453V17.9453ZM189.319 18.5238C188.55 18.9012 187.896 19.4647 187.358 20.2011L188.165 20.7911C188.617 20.1733 189.148 19.7212 189.759 19.4216L189.319 18.5238ZM187.358 20.2011C186.821 20.9354 186.414 21.8193 186.128 22.8417L187.091 23.1114C187.351 22.1807 187.712 21.4109 188.165 20.7911L187.358 20.2011ZM186.128 22.8417C185.839 23.8718 185.699 25.045 185.699 26.3555H186.699C186.699 25.1138 186.832 24.0345 187.091 23.1114L186.128 22.8417ZM185.699 26.3555V27.1758H186.699V26.3555H185.699ZM185.699 27.1758C185.699 28.2243 185.842 29.2184 186.132 30.1553L187.087 29.8603C186.83 29.0264 186.699 28.1325 186.699 27.1758H185.699ZM186.134 30.1638C186.438 31.0889 186.876 31.9113 187.45 32.6258L188.23 31.9992C187.736 31.3856 187.354 30.6715 187.084 29.8518L186.134 30.1638ZM187.454 32.6304C188.046 33.349 188.76 33.9146 189.592 34.3237L190.033 33.4263C189.329 33.0802 188.728 32.6041 188.226 31.9946L187.454 32.6304ZM189.595 34.3252C190.453 34.7399 191.414 34.9414 192.469 34.9414V33.9414C191.544 33.9414 190.735 33.7653 190.03 33.4248L189.595 34.3252ZM192.469 34.9414C193.813 34.9414 194.986 34.6669 195.964 34.0911L195.457 33.2292C194.665 33.6951 193.677 33.9414 192.469 33.9414V34.9414ZM195.964 34.0911C196.91 33.5352 197.732 32.7937 198.433 31.8732L197.637 31.2675C197.01 32.0917 196.283 32.7435 195.457 33.2292L195.964 34.0911ZM197.724 31.9618L199.912 33.7L200.534 32.9171L198.346 31.1789L197.724 31.9618ZM199.805 33.0331C199.377 33.6823 198.827 34.3075 198.152 34.9075L198.817 35.655C199.548 35.005 200.157 34.3151 200.64 33.5841L199.805 33.0331ZM198.152 34.9075C197.501 35.4859 196.69 35.9646 195.709 36.3373L196.064 37.2721C197.14 36.8635 198.061 36.3266 198.817 35.655L198.152 34.9075ZM195.707 36.338C194.762 36.7014 193.622 36.8906 192.273 36.8906V37.8906C193.712 37.8906 194.98 37.6892 196.066 37.2714L195.707 36.338ZM208.328 19.1875H208.828V19.1801L208.828 19.1728L208.328 19.1875ZM208.328 37V37.5H208.828V37H208.328ZM204.715 37H204.215V37.5H204.715V37ZM204.715 15.8672V15.3672H204.215V15.8672H204.715ZM208.23 15.8672L208.73 15.8525L208.716 15.3672H208.23V15.8672ZM214.93 15.75L215.43 15.7529L215.431 15.4419L215.153 15.3028L214.93 15.75ZM214.91 19.1094L214.804 19.598L215.407 19.729L215.41 19.1123L214.91 19.1094ZM214.051 18.9922L214.001 19.4897L214.014 19.491L214.027 19.4916L214.051 18.9922ZM208.27 22.1172L207.805 21.9315L207.803 21.9364L208.27 22.1172ZM207.781 24.2266L208.031 24.6597L208.253 24.5318L208.279 24.2771L207.781 24.2266ZM206.766 24.8125H206.266V25.6782L207.015 25.2456L206.766 24.8125ZM207.137 21.2188L206.65 21.1055L206.648 21.1109L207.137 21.2188ZM208.328 18.25L208.753 18.5138L208.755 18.511L208.328 18.25ZM210.359 16.2188L210.613 16.6499L210.615 16.6487L210.359 16.2188ZM214.227 15.5742L214.132 16.0652L214.141 16.067L214.151 16.0684L214.227 15.5742ZM207.828 19.1875V37H208.828V19.1875H207.828ZM208.328 36.5H204.715V37.5H208.328V36.5ZM205.215 37V15.8672H204.215V37H205.215ZM204.715 16.3672H208.23V15.3672H204.715V16.3672ZM207.731 15.8819L207.828 19.2022L208.828 19.1728L208.73 15.8525L207.731 15.8819ZM214.43 15.7471L214.41 19.1065L215.41 19.1123L215.43 15.7529L214.43 15.7471ZM215.016 18.6208C214.693 18.5505 214.379 18.5072 214.075 18.4928L214.027 19.4916C214.27 19.5032 214.528 19.5381 214.804 19.598L215.016 18.6208ZM214.101 18.4947C213.82 18.4666 213.503 18.4531 213.152 18.4531V19.4531C213.479 19.4531 213.761 19.4657 214.001 19.4897L214.101 18.4947ZM213.152 18.4531C212.267 18.4531 211.466 18.5914 210.756 18.8808L211.134 19.8067C211.701 19.5753 212.371 19.4531 213.152 19.4531V18.4531ZM210.756 18.8808C210.057 19.1663 209.456 19.5701 208.961 20.0942L209.688 20.7808C210.078 20.3674 210.558 20.042 211.134 19.8067L210.756 18.8808ZM208.961 20.0942C208.471 20.6125 208.087 21.2272 207.805 21.9315L208.734 22.3029C208.973 21.7051 209.292 21.2 209.688 20.7808L208.961 20.0942ZM207.803 21.9364C207.538 22.6212 207.366 23.3688 207.284 24.176L208.279 24.2771C208.353 23.5479 208.506 22.8892 208.736 22.298L207.803 21.9364ZM207.531 23.7935L206.516 24.3794L207.015 25.2456L208.031 24.6597L207.531 23.7935ZM207.266 24.8125C207.266 23.5687 207.386 22.4073 207.625 21.3266L206.648 21.1109C206.392 22.2698 206.266 23.5042 206.266 24.8125H207.266ZM207.624 21.332C207.873 20.2583 208.251 19.3209 208.753 18.5138L207.903 17.9862C207.337 18.8978 206.921 19.9396 206.65 21.1055L207.624 21.332ZM208.755 18.511C209.249 17.7033 209.868 17.0869 210.613 16.6499L210.106 15.7876C209.21 16.3141 208.475 17.0519 207.902 17.989L208.755 18.511ZM210.615 16.6487C211.358 16.2075 212.256 15.9766 213.328 15.9766V14.9766C212.109 14.9766 211.028 15.2404 210.104 15.7888L210.615 16.6487ZM213.328 15.9766C213.549 15.9766 213.815 16.0043 214.132 16.0652L214.321 15.0832C213.961 15.0139 213.629 14.9766 213.328 14.9766V15.9766ZM214.151 16.0684C214.488 16.1204 214.653 16.1705 214.706 16.1972L215.153 15.3028C214.946 15.1992 214.642 15.1322 214.303 15.08L214.151 16.0684ZM230.223 29.9492L229.773 30.1677L229.777 30.1755L229.781 30.1832L230.223 29.9492ZM228.836 28.7188L228.596 29.1575L228.606 29.1626L228.836 28.7188ZM225.711 27.7422L225.608 28.2315L225.615 28.2328L225.711 27.7422ZM222.527 26.8633L222.358 27.3336L222.36 27.3343L222.527 26.8633ZM220.125 25.6328L219.828 26.0348L219.831 26.0375L220.125 25.6328ZM218.641 19.2852L218.195 19.0584L218.192 19.0647L218.641 19.2852ZM220.223 17.3125L219.903 16.9278L219.9 16.9308L220.223 17.3125ZM233.016 18.7773L232.594 19.0458L232.595 19.0483L233.016 18.7773ZM233.973 22.0781V22.5781H234.473V22.0781H233.973ZM230.359 22.0781H229.859V22.5781H230.359V22.0781ZM229.832 20.3789L229.404 20.6377L229.411 20.6493L229.832 20.3789ZM228.328 18.9922L228.084 19.4285L228.087 19.4305L228.328 18.9922ZM223.484 18.9141L223.704 19.3632L223.708 19.3613L223.484 18.9141ZM222.137 20.0664L221.71 19.8056L221.705 19.8145L222.137 20.0664ZM221.922 22.6055L221.46 22.7978L221.465 22.8096L221.471 22.8212L221.922 22.6055ZM222.664 23.4453L222.366 23.8472L222.376 23.8542L222.664 23.4453ZM226.59 24.8125L226.7 24.3248L226.699 24.3246L226.59 24.8125ZM233.602 33.6602L233.156 33.4335L233.153 33.4396L233.602 33.6602ZM231.941 35.6523L232.245 36.0497L232.246 36.0489L231.941 35.6523ZM229.363 36.9414L229.508 37.42L229.512 37.4188L229.363 36.9414ZM217.371 30.4766V29.9766H216.871V30.4766H217.371ZM221.004 30.4766L221.503 30.4503L221.478 29.9766H221.004V30.4766ZM221.863 32.8398L221.49 33.172L221.493 33.1762L221.863 32.8398ZM223.777 34.0703L223.622 34.5455L223.629 34.5478L223.777 34.0703ZM228.504 34.0312L228.324 33.5646L228.321 33.5658L228.504 34.0312ZM231.074 31.3945C231.074 30.7955 230.939 30.233 230.665 29.7153L229.781 30.1832C229.975 30.5509 230.074 30.9519 230.074 31.3945H231.074ZM230.672 29.7308C230.384 29.1373 229.814 28.6629 229.066 28.2749L228.606 29.1626C229.264 29.5037 229.618 29.8496 229.773 30.1677L230.672 29.7308ZM229.076 28.2801C228.318 27.8656 227.217 27.5283 225.807 27.2515L225.615 28.2328C226.991 28.503 227.973 28.8167 228.596 29.1574L229.076 28.2801ZM225.814 27.253C224.66 27.0094 223.621 26.7221 222.695 26.3923L222.36 27.3343C223.335 27.6816 224.418 27.9802 225.608 28.2314L225.814 27.253ZM222.697 26.393C221.795 26.0671 221.038 25.6772 220.419 25.2281L219.831 26.0375C220.541 26.552 221.385 26.9824 222.358 27.3336L222.697 26.393ZM220.422 25.2309C219.825 24.7886 219.375 24.2766 219.061 23.696L218.181 24.1712C218.571 24.8927 219.123 25.5135 219.828 26.0347L220.422 25.2309ZM219.061 23.696C218.755 23.13 218.594 22.4528 218.594 21.6484H217.594C217.594 22.5889 217.784 23.4351 218.181 24.1712L219.061 23.696ZM218.594 21.6484C218.594 20.8909 218.759 20.1786 219.089 19.5056L218.192 19.0647C217.793 19.876 217.594 20.7393 217.594 21.6484H218.594ZM219.086 19.5119C219.432 18.8328 219.916 18.227 220.546 17.6942L219.9 16.9308C219.175 17.5439 218.605 18.2531 218.195 19.0584L219.086 19.5119ZM220.542 17.6972C221.179 17.1684 221.95 16.747 222.863 16.4385L222.543 15.4911C221.529 15.8337 220.646 16.3108 219.903 16.9278L220.542 17.6972ZM222.863 16.4385C223.767 16.133 224.787 15.9766 225.926 15.9766V14.9766C224.695 14.9766 223.566 15.1456 222.543 15.4911L222.863 16.4385ZM225.926 15.9766C227.561 15.9766 228.925 16.2659 230.038 16.8222L230.485 15.9278C229.202 15.2862 227.676 14.9766 225.926 14.9766V15.9766ZM230.038 16.8222C231.166 17.3859 232.01 18.129 232.594 19.0458L233.437 18.5089C232.745 17.4205 231.754 16.562 230.485 15.9278L230.038 16.8222ZM232.595 19.0483C233.18 19.9547 233.473 20.9604 233.473 22.0781H234.473C234.473 20.774 234.127 19.5792 233.436 18.5064L232.595 19.0483ZM233.973 21.5781H230.359V22.5781H233.973V21.5781ZM230.859 22.0781C230.859 21.386 230.65 20.7269 230.253 20.1085L229.411 20.6493C229.717 21.1247 229.859 21.5984 229.859 22.0781H230.859ZM230.26 20.1202C229.869 19.4738 229.298 18.9541 228.569 18.5539L228.087 19.4305C228.687 19.7595 229.118 20.1642 229.404 20.6376L230.26 20.1202ZM228.572 18.5559C227.829 18.1396 226.939 17.9453 225.926 17.9453V18.9453C226.814 18.9453 227.525 19.1156 228.084 19.4284L228.572 18.5559ZM225.926 17.9453C224.877 17.9453 223.979 18.1079 223.261 18.4668L223.708 19.3613C224.24 19.0952 224.969 18.9453 225.926 18.9453V17.9453ZM223.265 18.465C222.588 18.7962 222.057 19.2382 221.71 19.8057L222.563 20.3271C222.789 19.9571 223.157 19.6309 223.704 19.3632L223.265 18.465ZM221.705 19.8145C221.389 20.3563 221.227 20.9376 221.227 21.5508H222.227C222.227 21.1223 222.338 20.714 222.569 20.3183L221.705 19.8145ZM221.227 21.5508C221.227 21.9974 221.301 22.4157 221.46 22.7978L222.383 22.4132C222.282 22.1702 222.227 21.8855 222.227 21.5508H221.227ZM221.471 22.8212C221.659 23.2139 221.969 23.553 222.366 23.8471L222.962 23.0435C222.656 22.8168 222.472 22.5959 222.373 22.3897L221.471 22.8212ZM222.376 23.8542C222.781 24.1392 223.325 24.3918 223.985 24.6208L224.312 23.6761C223.696 23.4623 223.25 23.2462 222.952 23.0364L222.376 23.8542ZM223.985 24.6208C224.647 24.8506 225.481 25.0768 226.481 25.3004L226.699 24.3246C225.72 24.1055 224.926 23.8889 224.312 23.6761L223.985 24.6208ZM226.48 25.3002C228.188 25.6856 229.574 26.1437 230.648 26.668L231.087 25.7695C229.921 25.2001 228.455 24.7206 226.7 24.3248L226.48 25.3002ZM230.648 26.668C231.712 27.1879 232.47 27.8084 232.955 28.514L233.779 27.9469C233.171 27.064 232.262 26.3433 231.087 25.7695L230.648 26.668ZM232.955 28.514C233.435 29.2111 233.688 30.0714 233.688 31.1211H234.688C234.688 29.9052 234.393 28.8384 233.779 27.9469L232.955 28.514ZM233.688 31.1211C233.688 31.9727 233.508 32.7406 233.156 33.4335L234.047 33.8868C234.476 33.0433 234.688 32.1185 234.688 31.1211H233.688ZM233.153 33.4396C232.812 34.1338 232.31 34.7391 231.637 35.2558L232.246 36.0489C233.031 35.4458 233.636 34.7229 234.05 33.8807L233.153 33.4396ZM231.638 35.255C230.975 35.761 230.17 36.1661 229.214 36.4641L229.512 37.4188C230.561 37.0917 231.475 36.6374 232.245 36.0497L231.638 35.255ZM229.218 36.4628C228.284 36.7456 227.221 36.8906 226.023 36.8906V37.8906C227.3 37.8906 228.463 37.7361 229.508 37.42L229.218 36.4628ZM226.023 36.8906C224.219 36.8906 222.727 36.5687 221.526 35.95L221.068 36.839C222.445 37.5484 224.104 37.8906 226.023 37.8906V36.8906ZM221.526 35.95C220.303 35.3201 219.399 34.5174 218.79 33.55L217.944 34.0828C218.663 35.2248 219.713 36.1408 221.068 36.839L221.526 35.95ZM218.79 33.55C218.173 32.5698 217.871 31.5481 217.871 30.4766H216.871C216.871 31.7488 217.233 32.9536 217.944 34.0828L218.79 33.55ZM217.371 30.9766H221.004V29.9766H217.371V30.9766ZM220.505 30.5028C220.561 31.5752 220.875 32.481 221.49 33.172L222.237 32.5077C221.81 32.0268 221.551 31.3571 221.503 30.4503L220.505 30.5028ZM221.493 33.1762C222.074 33.8149 222.786 34.2719 223.622 34.5455L223.933 33.5952C223.258 33.374 222.694 33.0106 222.233 32.5035L221.493 33.1762ZM223.629 34.5478C224.429 34.7961 225.228 34.9219 226.023 34.9219V33.9219C225.335 33.9219 224.636 33.8132 223.926 33.5928L223.629 34.5478ZM226.023 34.9219C227.053 34.9219 227.946 34.7869 228.686 34.4967L228.321 33.5658C227.733 33.7964 226.973 33.9219 226.023 33.9219V34.9219ZM228.683 34.4979C229.424 34.2131 230.022 33.8074 230.443 33.2624L229.651 32.6516C229.368 33.0181 228.938 33.3286 228.324 33.5646L228.683 34.4979ZM230.443 33.2624C230.863 32.7175 231.074 32.0888 231.074 31.3945H230.074C230.074 31.8721 229.934 32.2851 229.651 32.6516L230.443 33.2624Z" fill="black" class="svg-elem-2"></path>
</g>
<defs>
<filter id="filter0_d_6_2" x="0.800781" y="7.67188" width="237.887" height="46.168" filterUnits="userSpaceOnUse" color-interpolation-filters="sRGB">
<feFlood flood-opacity="0" result="BackgroundImageFix"></feFlood>
<feColorMatrix in="SourceAlpha" type="matrix" values="0 0 0 0 0 0 0 0 0 0 0 0 0 0 0 0 0 0 127 0" result="hardAlpha"></feColorMatrix>
<feOffset dy="4"></feOffset>
<feGaussianBlur stdDeviation="2"></feGaussianBlur>
<feComposite in2="hardAlpha" operator="out"></feComposite>
<feColorMatrix type="matrix" values="0 0 0 0 0 0 0 0 0 0 0 0 0 0 0 0 0 0 0.25 0"></feColorMatrix>
<feBlend mode="normal" in2="BackgroundImageFix" result="effect1_dropShadow_6_2"></feBlend>
<feBlend mode="normal" in="SourceGraphic" in2="effect1_dropShadow_6_2" result="shape"></feBlend>
</filter>
</defs>
</svg>
